<svg width="24" height="24" viewBox="0 0 24 24" fill="none" xmlns="http://www.w3.org/2000/svg">
<path d="M12 3C13.78 3 15.5201 3.52784 17.0001 4.51677C18.4802 5.5057 19.6337 6.91131 20.3149 8.55584C20.9961 10.2004 21.1743 12.01 20.8271 13.7558C20.4798 15.5016 19.6226 17.1053 18.364 18.3639C17.1053 19.6226 15.5016 20.4798 13.7558 20.8271C12.01 21.1743 10.2004 20.9961 8.55585 20.3149C6.91132 19.6337 5.50571 18.4802 4.51678 17.0001C3.52785 15.5201 3.00001 13.78 3.00001 12C2.99715 9.4218 3.98911 6.94192 5.76924 5.07692" stroke="#B35200" stroke-width="1.5" stroke-linecap="round" stroke-linejoin="round"/>
<path d="M3 5.76921L5.76923 5.0769L6.46154 7.84613" stroke="#B35200" stroke-width="1.5" stroke-linecap="round" stroke-linejoin="round"/>
<path d="M12 7.15381V12.6923L15.6 14.4923" stroke="#B35200" stroke-width="1.5" stroke-linecap="round" stroke-linejoin="round"/>
</svg>
